# xmcd
#
# Track frame offsets:
# 150
# 10485
# 24037
# 36630
# 49770
# 64517
# 79660
# 89710
# 100757
# 122512
# 136630
# 154175
#
# Disc length: 2342 seconds
#
#
# Revision: 2
# Processed by: cddbd v1.4PL0 Copyright (c) Steve Scherf et al.
# Submitted via: HACP 1.18
#
DISCID=8f09240c
DTITLE=Two Dollar Pistols - On Down The Track
DYEAR=1900
DGENRE=
TTITLE0=Bring The Heartbreak
TTITLE1=Haven't Found The Time
TTITLE2=Someday You Will Be Mine
TTITLE3=Every Time I Turn Around
TTITLE4='Till You Did Wrong By Me
TTITLE5=Let Me Be Your Fool
TTITLE6=A World So Full Of  Love
TTITLE7=She's Gone, Gone, Gone
TTITLE8=I'll Tell The Bottle
TTITLE9=Your Place In The Sun
TTITLE10=I Flew Over Our House Last Night
TTITLE11=I've Let Myself Down (Again)
EXTD=
EXTT0=
EXTT1=
EXTT2=
EXTT3=
EXTT4=
EXTT5=
EXTT6=
EXTT7=
EXTT8=
EXTT9=
EXTT10=
EXTT11=
PLAYORDER=
